<svg data-name="Layer 2" height="512" id="Layer_2" viewBox="0 0 128 128" width="512" xmlns="http://www.w3.org/2000/svg">
    <path d="m1.75 67.374v28.251a4 4 0 0 0 4 4h31.25v-14.667h54v14.667h31.25a4 4 0 0 0 4-4v-28.251z" fill="#38454f"/>
    <path d="m122.25 45.625h-116.5a4 4 0 0 0 -4 4v17.749h124.5v-17.749a4 4 0 0 0 -4-4z" fill="#60d882"/>
    <rect fill="#d6eafc" height="6.833" rx="3.417" width="37.792" x="25.208" y="53.083"/>
    <rect fill="#38454f" height="6.833" rx="3.417" width="7.625" x="95.167" y="53.083"/>
    <rect fill="#38454f" height="6.833" rx="3.417" width="7.625" x="79.373" y="53.083"/>
    <path d="m37 84.958h54v32.667h-54z" fill="#d6eafc"/>
    <path d="m25.208 84.958h11.792v14.667h-11.792z" fill="#06daf7"/>
    <path d="m91 84.958h11.792v14.667h-11.792z" fill="#06daf7"/>
    <path d="m37 10.375h54v35.25h-54z" fill="#d6eafc"/>
    <path d="m15.229 29.125v16.5h21.771v-20.5h-17.771a4 4 0 0 0 -4 4z" fill="#38454f"/>
    <path d="m91 25.125v20.5h21.771v-16.5a4 4 0 0 0 -4-4z" fill="#38454f"/>
    <g fill="#b7dbf6">
        <path d="m80.687 96.75h-33.375a1.75 1.75 0 0 1 0-3.5h33.375a1.75 1.75 0 1 1 0 3.5z"/>
        <path d="m80.687 108.833h-33.375a1.75 1.75 0 1 1 0-3.5h33.375a1.75 1.75 0 0 1 0 3.5z"/>
    </g>
</svg>